<svg width="251" height="138" viewBox="0 0 251 138" fill="none" xmlns="http://www.w3.org/2000/svg">
<path d="M25.9077 137.829C25.9077 137.829 8.93948 106.786 27.5094 73.1767C43.9862 43.3563 69.9835 67.0681 84.7134 36.7258C104.802 -4.65366 205.054 11.5063 192.358 75.1693C186.214 105.978 220.244 107.098 207.585 137.894L25.9077 137.829Z" fill="url(#paint0_linear)"/>
<path d="M165.992 69.1164C165.992 69.1164 161.492 63.7109 166.271 60.7105C166.271 60.7105 169.724 59.0739 172.426 59.3759C172.426 59.3759 168.18 64.9978 169.384 65.6496C170.587 66.3006 173.616 59.0756 173.616 59.0756C173.616 59.0756 181.233 58.8389 183.595 60.0375C183.595 60.0375 176.792 64.4696 178.136 64.8326C179.479 65.1957 186.794 60.881 186.794 60.881C186.794 60.881 193.766 62.3657 193.121 66.2388C192.477 70.1118 189.967 71.177 188.907 71.0136C187.847 70.8493 181.753 68.3374 181.563 69.1226C181.373 69.9069 184.952 72.7086 187.574 72.9789C187.574 72.9789 182.264 77.6619 179.062 76.042C175.86 74.423 175.734 72.1362 173.734 71.1682C171.735 70.2002 169.978 70.103 170.768 71.0198C171.558 71.9366 175.224 72.9912 176.271 74.9441C177.318 76.897 178.286 78.2289 174.902 77.57C171.519 76.9111 166.123 74.3329 166.057 71.7255C165.992 69.1164 165.992 69.1164 165.992 69.1164Z" fill="#82B378"/>
<path d="M189.651 66.1467C189.651 66.1467 170.56 64.3961 165.992 69.1153C165.992 69.1153 164.882 71.599 161.847 73.7453L161.322 74.8273C161.322 74.8273 164.857 71.8472 166.057 71.7226C166.057 71.7226 164.625 65.4745 189.651 66.1467Z" fill="#82B378"/>
<path d="M161.847 73.746C161.847 73.746 157.55 76.2659 156.925 81.1679L157.666 81.2704C157.666 81.2704 159.328 76.2597 161.836 74.4049C164.346 72.5509 161.847 73.746 161.847 73.746Z" fill="#82B378"/>
<path d="M143.914 56.1945C143.914 56.1945 133.937 51.1317 138.592 44.2617C138.592 44.2617 142.317 40.0433 146.308 38.9578C146.308 38.9578 144.179 49.2035 146.308 49.4447C148.436 49.6858 147.771 37.8732 147.771 37.8732C147.771 37.8732 158.281 33.2926 162.406 33.6548C162.406 33.6548 155.887 43.6594 158.016 43.4182C160.144 43.1771 167.461 33.0524 167.461 33.0524C167.461 33.0524 178.237 31.2444 179.967 37.0297C181.696 42.815 178.902 45.7085 177.306 46.0697C175.71 46.431 165.466 46.3109 165.732 47.5165C165.998 48.7222 172.916 50.6503 176.774 49.5657C176.774 49.5657 172.517 59.088 166.929 58.6057C161.341 58.1235 159.612 54.9897 156.153 54.7486C152.694 54.5075 150.167 55.351 151.896 56.1953C153.625 57.0389 159.479 56.4718 162.272 58.6234C165.066 60.775 167.328 62.1016 162.14 63.0653C156.952 64.0298 147.639 63.4265 145.776 59.8105C143.914 56.1945 143.914 56.1945 143.914 56.1945Z" fill="#A8D29F"/>
<path d="M175.046 38.8374C175.046 38.8374 147.109 47.034 143.915 56.1942C143.915 56.1942 144.049 60.2924 141.255 64.9931V66.8011C141.255 66.8011 144.181 60.6537 145.778 59.8102C145.778 59.8102 139.526 51.8547 175.046 38.8374Z" fill="#82B378"/>
<path d="M141.254 64.9933C141.254 64.9933 136.945 70.9208 139.402 78.137L140.51 77.8676C140.51 77.8676 139.434 69.9201 141.689 65.9225C143.943 61.9249 141.254 64.9933 141.254 64.9933Z" fill="#82B378"/>
<path d="M91.2985 58.7882C91.2985 58.7882 102.91 54.3358 98.7259 46.2955C98.7259 46.2955 95.2077 41.2637 90.9797 39.6367C90.9797 39.6367 91.9419 51.0978 89.5769 51.1287C87.212 51.1587 89.5214 38.2871 89.5214 38.2871C89.5214 38.2871 78.6167 32.1141 74.0486 32.0567C74.0486 32.0567 79.8538 43.7359 77.5541 43.2377C75.2535 42.7396 68.5894 30.8404 68.5894 30.8404C68.5894 30.8404 57.0229 27.6758 54.3537 33.8258C51.6846 39.9759 54.3596 43.4532 56.0607 44.0247C57.7618 44.5962 69.0037 45.589 68.5504 46.8803C68.0971 48.1716 60.2584 49.5256 56.1757 47.9137C56.1757 47.9137 59.5672 58.8165 65.7546 58.9013C71.9419 58.9861 74.2562 55.7419 78.0796 55.8576C81.902 55.9733 84.5594 57.1754 82.5512 57.9103C80.543 58.6452 74.2046 57.3803 70.855 59.4321C67.5054 61.4839 64.8499 62.6887 70.4066 64.3147C75.9632 65.9408 86.2488 66.3029 88.7737 62.5447C91.2985 58.7882 91.2985 58.7882 91.2985 58.7882Z" fill="#A8D29F"/>
<path d="M59.5049 36.3494C59.5049 36.3494 89.0242 48.3996 91.2976 58.7884C91.2976 58.7884 90.6035 63.2647 93.0367 68.7232L92.7949 70.7043C92.7949 70.7043 90.4095 63.6462 88.7737 62.5466C88.7737 62.5466 96.6894 54.5152 59.5049 36.3494Z" fill="#82B378"/>
<path d="M93.0365 68.7232C93.0365 68.7232 96.9651 75.692 93.3085 83.3304L92.1299 82.9135C92.1299 82.9135 94.372 74.3221 92.437 69.6938C90.5009 65.0656 93.0365 68.7232 93.0365 68.7232Z" fill="#82B378"/>
<path d="M67.4817 84.627C65.4296 81.9455 65.2006 79.4476 65.2006 79.4476C65.2006 79.4476 70.8781 75.7539 67.5314 71.8702C67.5314 71.8702 64.95 69.5384 62.4447 69.1277C62.4447 69.1277 64.5113 75.2186 63.2372 75.4968C61.9621 75.7751 61.4747 68.5598 61.4747 68.5598C61.4747 68.5598 54.7453 66.4294 52.2682 66.9046C52.2682 66.9046 56.9836 72.5768 55.6724 72.5627C54.3612 72.5486 49.1526 66.8525 49.1526 66.8525C49.1526 66.8525 42.471 66.4223 41.8578 70.0436C41.2447 73.665 43.1602 75.2487 44.1565 75.3697C45.1538 75.4907 51.3665 74.7823 51.2953 75.5304C51.2251 76.2785 47.1688 77.879 44.7434 77.4594C44.7434 77.4594 48.0481 82.9789 51.4055 82.3394C54.7629 81.6999 55.5769 79.6896 57.6591 79.3284C59.7414 78.9671 61.3411 79.3231 60.3536 79.9431C59.3671 80.5632 55.7689 80.5808 54.2345 82.0612C52.7001 83.5415 51.4269 84.4866 54.6508 84.7507C57.8746 85.0148 63.4858 84.0714 64.3437 81.7591C64.3807 81.6584 64.4168 81.5621 64.4509 81.4703C64.4051 81.6584 64.3437 81.7591 64.3437 81.7591C64.9637 82.0073 66.0175 83.3834 66.7623 84.4459C66.8724 84.6288 67.042 84.8796 67.2887 85.2179C67.391 85.3716 67.4729 85.4979 67.5304 85.5862C68.9547 87.9913 68.9069 92.3996 68.9069 92.3996L69.601 92.495C70.5456 87.9595 67.4817 84.627 67.4817 84.627Z" fill="#82B378"/>
<path d="M56.5312 71.7092L112.156 41.5373C115.224 39.8733 119.053 39.8733 122.12 41.5373L177.745 71.7092V120.885L56.5322 115.379V71.7092H56.5312Z" fill="#ED7D2B"/>
<path d="M167.311 49.9204H66.9648V128.491H167.311V49.9204Z" fill="#FCECDB"/>
<path d="M71.4572 54.2116C71.9834 54.0141 72.2333 53.4675 72.0153 52.9906C71.7974 52.5138 71.194 52.2874 70.6677 52.4849C70.1415 52.6824 69.8916 53.2291 70.1096 53.7059C70.3275 54.1827 70.9309 54.4092 71.4572 54.2116Z" fill="#EFCBAB"/>
<path d="M162.124 53.3485C162.124 52.8327 162.586 52.4141 163.155 52.4141C163.724 52.4141 164.186 52.8327 164.186 53.3485C164.186 53.8644 163.724 54.283 163.155 54.283C162.585 54.2839 162.124 53.8652 162.124 53.3485Z" fill="#EFCBAB"/>
<path d="M163.155 53.2466H71.0601V53.4497H163.155V53.2466Z" fill="#EFCBAB"/>
<path d="M71.1724 52.9773H70.9482V136.419H71.1724V52.9773Z" fill="#EFCBAB"/>
<path d="M163.302 52.9773H163.078V136.419H163.302V52.9773Z" fill="#EFCBAB"/>
<path d="M177.744 71.5732V137.322H56.5312V71.5732L117.137 104.448L177.744 71.5732Z" fill="#FF9843"/>
<path d="M56.5312 137.323L112.05 101.259C115.091 99.2836 119.184 99.2836 122.225 101.259L177.744 137.323H56.5312Z" fill="#ED7D2B"/>
<path d="M135.64 60.8055H99.0544C98.5232 60.8055 98.0884 60.4116 98.0884 59.9302C98.0884 59.4489 98.5232 59.0549 99.0544 59.0549H135.64C136.172 59.0549 136.607 59.4489 136.607 59.9302C136.607 60.4116 136.172 60.8055 135.64 60.8055Z" fill="#EFCBAB"/>
<path d="M145.064 64.317H89.6297C89.0984 64.317 88.6636 63.9231 88.6636 63.4417C88.6636 62.9603 89.0984 62.5664 89.6297 62.5664H145.064C145.596 62.5664 146.03 62.9603 146.03 63.4417C146.03 63.9231 145.596 64.317 145.064 64.317Z" fill="#EFCBAB"/>
<path d="M137.875 75.208H97.7668C97.3828 75.208 97.0679 74.9227 97.0679 74.5747C97.0679 74.2267 97.3828 73.9414 97.7668 73.9414H137.875C138.259 73.9414 138.574 74.2267 138.574 74.5747C138.573 74.9236 138.259 75.208 137.875 75.208Z" fill="#EFCBAB"/>
<path d="M101.794 78.5151H90.4846C90.1005 78.5151 89.7856 78.2298 89.7856 77.8818C89.7856 77.5338 90.1005 77.2485 90.4846 77.2485H101.794C102.178 77.2485 102.493 77.5338 102.493 77.8818C102.493 78.2307 102.178 78.5151 101.794 78.5151Z" fill="#EFCBAB"/>
<path d="M118.849 78.5149H105.186C104.802 78.5149 104.487 78.2296 104.487 77.8816C104.487 77.5336 104.802 77.2483 105.186 77.2483H118.849C119.233 77.2483 119.548 77.5336 119.548 77.8816C119.548 78.2305 119.234 78.5149 118.849 78.5149Z" fill="#EFCBAB"/>
<path d="M145.156 78.5149H121.537C121.153 78.5149 120.838 78.2296 120.838 77.8816C120.838 77.5336 121.153 77.2483 121.537 77.2483H145.156C145.54 77.2483 145.855 77.5336 145.855 77.8816C145.855 78.2305 145.54 78.5149 145.156 78.5149Z" fill="#EFCBAB"/>
<path d="M118.94 82.361H96.9704C96.5864 82.361 96.2715 82.0757 96.2715 81.7278C96.2715 81.3798 96.5864 81.0945 96.9704 81.0945H118.94C119.324 81.0945 119.639 81.3798 119.639 81.7278C119.639 82.0757 119.324 82.361 118.94 82.361Z" fill="#EFCBAB"/>
<path d="M138.671 82.3603H121.367C120.983 82.3603 120.668 82.075 120.668 81.727C120.668 81.379 120.983 81.0938 121.367 81.0938H138.671C139.055 81.0938 139.37 81.379 139.37 81.727C139.37 82.075 139.055 82.3603 138.671 82.3603Z" fill="#EFCBAB"/>
<path d="M125.11 90.1779C123.789 91.1716 122.375 92.0001 120.885 92.7562C121.011 92.3984 121.116 92.0266 121.097 91.6963C121.071 91.2405 120.669 91.0409 120.267 90.8519C120.168 90.8051 120.075 90.7556 119.983 90.7061C120.139 90.5675 120.219 90.3758 120.115 90.1665C119.946 89.8211 119.47 89.8768 119.309 90.1965C119.279 90.2557 119.262 90.3131 119.254 90.3687C119.19 90.3378 119.14 90.3042 119.097 90.2574C119.342 89.8432 119.573 89.421 119.786 88.99C119.833 88.8928 119.773 88.7789 119.687 88.7197C119.334 88.4786 118.853 88.5563 118.569 88.8592C118.233 89.2187 118.318 89.7655 118.478 90.1735C118.49 90.2018 118.502 90.2309 118.516 90.2592C118.204 90.7697 117.864 91.2652 117.501 91.7475C117.467 91.7166 117.432 91.6857 117.398 91.6556C117.304 91.5717 117.202 91.4648 117.115 91.3465C117.281 90.9534 117.388 90.541 117.428 90.1108C117.445 89.9191 117.234 89.8246 117.056 89.8838C116.567 90.0481 116.304 90.4986 116.367 90.9623C116.388 91.1213 116.446 91.2732 116.526 91.4145C116.417 91.6291 116.287 91.8376 116.134 92.0381C116.035 92.1679 116.106 92.3004 116.223 92.3622C116.062 92.8462 115.846 93.3409 115.478 93.6898C115.177 93.9742 114.615 94.1906 114.249 93.8523C114.017 93.6385 113.987 93.2808 113.955 92.9982C113.877 92.3013 113.819 91.5779 113.847 90.8766C113.861 90.5445 113.9 90.2071 114.024 89.8935C114.102 89.6983 114.212 89.4033 114.316 89.739C114.368 89.9041 114.296 90.1594 114.278 90.3272C114.245 90.6266 114.757 90.6611 114.791 90.3634C114.83 90.0119 115.003 89.2753 114.564 89.0553C114.201 88.8725 113.866 89.1348 113.698 89.4086C113.091 90.3943 113.333 91.7475 113.424 92.8189C113.497 93.673 113.849 94.7214 115.053 94.4494C116.186 94.1941 116.602 92.9001 116.862 92.0098C116.879 91.9542 116.873 91.9038 116.854 91.8605C116.858 91.8535 116.863 91.8455 116.868 91.8385C116.915 91.8817 116.962 91.9232 117.009 91.9665C117.077 92.0204 117.14 92.0769 117.201 92.1352C117.082 92.2845 116.962 92.4329 116.837 92.5795C116.767 92.6625 116.787 92.7871 116.857 92.8639C117.238 93.2799 117.924 92.9717 117.91 92.4603C117.907 92.3419 117.875 92.2368 117.824 92.1405C118.182 91.6742 118.516 91.1937 118.826 90.7008C118.987 90.8439 119.193 90.9358 119.445 90.9252C119.462 90.9243 119.479 90.9225 119.496 90.9208C119.628 91.0471 119.794 91.1522 119.945 91.2299C120.091 91.3041 120.26 91.3509 120.391 91.4481C120.636 91.6291 120.563 91.8358 120.509 92.0928C120.438 92.4311 120.32 92.7685 120.211 93.0989C119.693 93.3683 119.182 93.7101 119.008 94.2506C118.849 94.7435 118.99 95.2619 119.456 95.5676C119.597 95.6594 119.783 95.5852 119.842 95.4518C120.135 94.8009 120.399 94.1393 120.625 93.4672C120.632 93.446 120.64 93.4239 120.647 93.4027C121.105 93.1669 121.583 92.9593 122.036 92.7173C123.236 92.0734 124.374 91.3394 125.448 90.5321C125.705 90.3369 125.366 89.9863 125.11 90.1779ZM118.859 89.557C118.854 89.3706 118.963 89.0288 119.2 89.0332C119.093 89.2435 118.981 89.4519 118.866 89.6577C118.864 89.6241 118.86 89.5897 118.859 89.557ZM119.513 94.9431C119.296 94.5757 119.606 94.1225 119.96 93.8231C119.822 94.2003 119.672 94.573 119.513 94.9431Z" fill="#F99746"/>
<path opacity="0.5" d="M105.257 0.000732422L110.482 10.4461L91.2252 18.3538L86 7.90848L98.2412 9.17771L105.257 0.000732422Z" fill="#CDE0FB"/>
<path opacity="0.5" d="M86 7.90863L105.257 0L99.4997 8.79188C99.0454 9.48523 98.1651 9.85178 97.2887 9.71134L86 7.90863Z" fill="#B1CFF2"/>
<path opacity="0.5" d="M14.8416 85.8596L17.5907 92.5379L5.27739 96.698L2.5293 90.0189L10.06 91.2784L14.8416 85.8596Z" fill="#CDE0FB"/>
<path opacity="0.5" d="M2.5293 90.0193L14.8426 85.8591L10.8594 91.0889C10.5455 91.5014 9.982 91.6939 9.44486 91.5738L2.5293 90.0193Z" fill="#B1CFF2"/>
<path opacity="0.5" d="M226.04 50.8467L222.177 63.9612L198 58.115L201.862 45.0005L212.019 54.4813L226.04 50.8467Z" fill="#CDE0FB"/>
<path opacity="0.5" d="M201.862 45L226.039 50.8453L213.49 54.9825C212.5 55.3084 211.391 55.0461 210.705 54.3218L201.862 45Z" fill="#B1CFF2"/>
<path d="M9.88518 115.389C9.38899 115.387 8.90644 115.38 8.45313 115.367C8.40049 115.365 8.35857 115.319 8.36052 115.263C8.3615 115.206 8.40439 115.163 8.45801 115.164C8.91034 115.177 9.38996 115.184 9.88518 115.186C9.93783 115.186 9.98072 115.232 9.97974 115.288C9.98072 115.344 9.93783 115.389 9.88518 115.389ZM11.3163 115.378C11.2646 115.378 11.2217 115.334 11.2207 115.278C11.2198 115.222 11.2617 115.175 11.3143 115.175C11.7725 115.167 12.2531 115.153 12.7444 115.137C12.799 115.132 12.8409 115.179 12.8429 115.235C12.8448 115.291 12.8029 115.338 12.7503 115.34C12.258 115.357 11.7764 115.37 11.3172 115.379C11.3182 115.378 11.3172 115.378 11.3163 115.378ZM7.0279 115.302C7.02596 115.302 7.02401 115.302 7.02206 115.302C6.51806 115.269 6.03746 115.228 5.59293 115.177C5.54029 115.171 5.50227 115.122 5.50812 115.065C5.51397 115.009 5.56076 114.969 5.6134 114.975C6.05501 115.025 6.53268 115.067 7.03375 115.099C7.0864 115.103 7.12637 115.151 7.12344 115.207C7.11954 115.26 7.07762 115.302 7.0279 115.302ZM14.1784 115.279C14.1277 115.279 14.0858 115.236 14.0829 115.182C14.0809 115.126 14.1209 115.078 14.1735 115.076C14.6327 115.053 15.1133 115.026 15.6017 114.996C15.6543 114.994 15.6992 115.036 15.7021 115.092C15.705 115.147 15.6651 115.196 15.6124 115.198C15.1221 115.228 14.6415 115.255 14.1813 115.278C14.1813 115.279 14.1804 115.279 14.1784 115.279ZM17.0367 115.104C16.9869 115.104 16.945 115.063 16.9421 115.009C16.9382 114.954 16.9782 114.905 17.0308 114.901C17.4997 114.867 17.9764 114.83 18.458 114.791C18.5106 114.787 18.5565 114.829 18.5604 114.885C18.5643 114.94 18.5253 114.99 18.4726 114.993C17.9901 115.032 17.5143 115.069 17.0445 115.103C17.0415 115.103 17.0386 115.104 17.0367 115.104ZM4.1872 114.966C4.18135 114.966 4.17648 114.966 4.17063 114.964C3.64421 114.864 3.17336 114.744 2.7688 114.607C2.71908 114.59 2.69081 114.532 2.70641 114.479C2.722 114.425 2.77562 114.396 2.82631 114.412C3.2221 114.547 3.68613 114.665 4.20377 114.764C4.25544 114.774 4.28956 114.827 4.28079 114.882C4.27299 114.932 4.23204 114.966 4.1872 114.966ZM19.891 114.872C19.8423 114.872 19.8004 114.832 19.7965 114.779C19.7916 114.723 19.8306 114.674 19.8832 114.669C20.3541 114.627 20.8288 114.583 21.3084 114.536C21.3611 114.531 21.4069 114.572 21.4118 114.628C21.4167 114.683 21.3777 114.733 21.326 114.738C20.8464 114.785 20.3706 114.829 19.8998 114.872C19.8969 114.872 19.8939 114.872 19.891 114.872ZM22.7424 114.596C22.6937 114.596 22.6528 114.556 22.6479 114.504C22.643 114.449 22.681 114.398 22.7337 114.393C23.2045 114.344 23.6793 114.293 24.1569 114.241C24.2086 114.237 24.2564 114.275 24.2613 114.332C24.2671 114.388 24.2281 114.438 24.1764 114.443C23.6978 114.495 23.223 114.547 22.7522 114.595C22.7483 114.596 22.7454 114.596 22.7424 114.596ZM25.59 114.284C25.5422 114.284 25.5003 114.245 25.4954 114.193C25.4896 114.138 25.5276 114.087 25.5802 114.081C26.0521 114.027 26.5258 113.971 27.0025 113.913C27.0552 113.907 27.102 113.947 27.1078 114.002C27.1137 114.058 27.0756 114.108 27.024 114.115C26.5473 114.172 26.0725 114.228 25.6007 114.282C25.5968 114.284 25.5929 114.284 25.59 114.284ZM1.51027 113.966C1.49077 113.966 1.47128 113.96 1.4547 113.947C1.17882 113.732 0.978976 113.489 0.861994 113.225C0.776207 113.033 0.705045 112.839 0.650454 112.65C0.634856 112.596 0.663125 112.54 0.712842 112.523C0.76256 112.506 0.816176 112.536 0.831774 112.59C0.884416 112.769 0.952654 112.954 1.03454 113.139C1.13787 113.372 1.31725 113.588 1.56681 113.783C1.6097 113.815 1.61848 113.879 1.58728 113.925C1.56778 113.951 1.53951 113.966 1.51027 113.966ZM28.4336 113.942C28.3858 113.942 28.3449 113.904 28.339 113.852C28.3332 113.797 28.3702 113.746 28.4229 113.739C28.8947 113.68 29.3685 113.62 29.8432 113.559C29.8949 113.553 29.9427 113.592 29.9495 113.647C29.9563 113.703 29.9183 113.754 29.8666 113.76C29.3909 113.822 28.9171 113.882 28.4453 113.942C28.4414 113.942 28.4375 113.942 28.4336 113.942ZM31.2753 113.575C31.2275 113.575 31.1866 113.537 31.1807 113.486C31.1739 113.43 31.211 113.379 31.2636 113.373C31.7344 113.31 32.2053 113.246 32.6781 113.181C32.7298 113.175 32.7785 113.214 32.7844 113.269C32.7902 113.325 32.7541 113.376 32.7025 113.383C32.2297 113.448 31.7578 113.512 31.287 113.575C31.2831 113.575 31.2792 113.575 31.2753 113.575ZM34.1072 113.186C34.0604 113.186 34.0195 113.149 34.0127 113.098C34.0058 113.042 34.0429 112.991 34.0945 112.984C34.5673 112.918 35.0401 112.85 35.513 112.782C35.5656 112.775 35.6134 112.814 35.6202 112.869C35.627 112.925 35.5909 112.976 35.5383 112.983C35.0645 113.051 34.5917 113.119 34.1189 113.185C34.115 113.186 34.1111 113.186 34.1072 113.186ZM36.947 112.777C36.9002 112.777 36.8592 112.739 36.8524 112.689C36.8456 112.633 36.8816 112.582 36.9333 112.574C37.4061 112.504 37.8789 112.434 38.3507 112.363C38.4024 112.355 38.4511 112.394 38.458 112.45C38.4658 112.505 38.4287 112.557 38.3771 112.565C37.9052 112.635 37.4324 112.706 36.9596 112.776C36.9557 112.777 36.9518 112.777 36.947 112.777ZM39.7808 112.35C39.734 112.35 39.6931 112.314 39.6863 112.262C39.6785 112.207 39.7145 112.156 39.7672 112.148C40.24 112.075 40.7128 112.002 41.1827 111.929C41.2343 111.92 41.2831 111.959 41.2909 112.014C41.2987 112.07 41.2626 112.121 41.21 112.129C40.7391 112.202 40.2663 112.276 39.7935 112.348C39.7906 112.35 39.7857 112.35 39.7808 112.35ZM42.6128 111.907C42.566 111.907 42.526 111.871 42.5182 111.821C42.5104 111.765 42.5465 111.714 42.5981 111.705C43.0719 111.63 43.5437 111.554 44.0126 111.478C44.0653 111.469 44.1131 111.508 44.1209 111.564C44.1287 111.619 44.0926 111.671 44.0409 111.68C43.571 111.755 43.0992 111.831 42.6254 111.907C42.6225 111.907 42.6176 111.907 42.6128 111.907ZM45.4428 111.451C45.3969 111.451 45.356 111.415 45.3492 111.364C45.3414 111.309 45.3765 111.256 45.4291 111.248C45.9029 111.171 46.3747 111.093 46.8436 111.015C46.8953 111.007 46.944 111.044 46.9528 111.1C46.9606 111.156 46.9255 111.208 46.8729 111.216C46.4039 111.294 45.9321 111.371 45.4583 111.449C45.4525 111.45 45.4476 111.451 45.4428 111.451ZM0.646553 111.219C0.640704 111.219 0.63388 111.218 0.628031 111.218C0.576364 111.206 0.54322 111.153 0.552969 111.098C0.644605 110.613 0.85907 110.146 1.19149 109.711C1.22464 109.667 1.28508 109.66 1.32602 109.696C1.36697 109.731 1.37281 109.795 1.33967 109.839C1.02674 110.25 0.82495 110.687 0.740138 111.139C0.731364 111.186 0.691396 111.219 0.646553 111.219ZM48.2718 110.98C48.2259 110.98 48.185 110.945 48.1782 110.894C48.1704 110.839 48.2055 110.787 48.2571 110.778C48.7319 110.697 49.2027 110.618 49.6707 110.537C49.7223 110.529 49.7711 110.567 49.7798 110.621C49.7886 110.677 49.7526 110.729 49.7009 110.738C49.2339 110.817 48.7621 110.898 48.2874 110.978C48.2815 110.98 48.2766 110.98 48.2718 110.98ZM51.0978 110.498C51.052 110.498 51.0111 110.462 51.0043 110.412C50.9955 110.356 51.0316 110.304 51.0832 110.295C51.5589 110.213 52.0298 110.131 52.4958 110.05C52.5474 110.041 52.5972 110.078 52.605 110.134C52.6137 110.189 52.5786 110.242 52.526 110.25C52.06 110.332 51.5892 110.414 51.1134 110.496C51.1076 110.497 51.1027 110.498 51.0978 110.498ZM53.923 110.003C53.8771 110.003 53.8372 109.968 53.8294 109.918C53.8206 109.863 53.8557 109.811 53.9073 109.802C54.384 109.717 54.8549 109.633 55.3189 109.55C55.3716 109.54 55.4203 109.578 55.4291 109.634C55.4379 109.69 55.4028 109.742 55.3511 109.75C54.8871 109.834 54.4162 109.917 53.9385 110.002C53.9337 110.003 53.9278 110.003 53.923 110.003ZM56.7461 109.498C56.7003 109.498 56.6603 109.463 56.6525 109.413C56.6437 109.357 56.6788 109.305 56.7305 109.296C57.2092 109.209 57.68 109.123 58.1421 109.039C58.1938 109.029 58.2435 109.066 58.2522 109.122C58.261 109.176 58.2259 109.229 58.1743 109.239C57.7122 109.324 57.2413 109.41 56.7627 109.496C56.7568 109.497 56.752 109.498 56.7461 109.498ZM59.5683 108.981C59.5225 108.981 59.4825 108.947 59.4747 108.897C59.4659 108.842 59.5001 108.79 59.5527 108.78C60.0343 108.691 60.5051 108.603 60.9633 108.517C61.0159 108.508 61.0647 108.545 61.0735 108.6C61.0822 108.655 61.0481 108.707 60.9964 108.717C60.5383 108.803 60.0674 108.89 59.5858 108.979C59.58 108.98 59.5741 108.981 59.5683 108.981ZM2.32134 108.858C2.29112 108.858 2.26188 108.843 2.24335 108.815C2.21313 108.769 2.22386 108.706 2.26675 108.674C2.62647 108.406 3.0476 108.147 3.51651 107.903C3.5633 107.878 3.62081 107.899 3.64421 107.95C3.66761 108 3.64713 108.061 3.60034 108.086C3.14021 108.325 2.72785 108.579 2.37593 108.841C2.35936 108.852 2.34084 108.858 2.32134 108.858ZM62.3905 108.454C62.3447 108.454 62.3047 108.419 62.2969 108.37C62.2881 108.314 62.3222 108.262 62.3739 108.252C62.8604 108.161 63.3312 108.071 63.7845 107.985C63.8362 107.974 63.8859 108.011 63.8947 108.067C63.9044 108.123 63.8693 108.175 63.8177 108.184C63.3643 108.271 62.8935 108.36 62.407 108.452C62.4012 108.454 62.3953 108.454 62.3905 108.454ZM65.2107 107.916C65.1659 107.916 65.1249 107.882 65.1171 107.832C65.1074 107.777 65.1425 107.724 65.1941 107.714C65.6913 107.617 66.1622 107.526 66.6047 107.441C66.6564 107.43 66.7061 107.467 66.7159 107.522C66.7256 107.577 66.6905 107.63 66.6389 107.64C66.1973 107.727 65.7264 107.818 65.2283 107.914C65.2224 107.916 65.2166 107.916 65.2107 107.916ZM4.87642 107.498C4.83742 107.498 4.80135 107.473 4.78673 107.432C4.76821 107.379 4.79355 107.321 4.84327 107.301C5.26538 107.133 5.72453 106.97 6.20806 106.816C6.25875 106.8 6.31139 106.83 6.32699 106.884C6.34161 106.938 6.31334 106.995 6.26265 107.011C5.78302 107.163 5.32777 107.325 4.90956 107.491C4.89786 107.496 4.88714 107.498 4.87642 107.498ZM68.0329 107.367C67.9881 107.367 67.9481 107.332 67.9393 107.284C67.9296 107.229 67.9637 107.176 68.0154 107.165C68.5535 107.059 69.0253 106.966 69.4269 106.885C69.4786 106.875 69.5283 106.911 69.5381 106.966C69.5478 107.021 69.5137 107.075 69.462 107.085C69.0604 107.165 68.5876 107.259 68.0495 107.365C68.0436 107.366 68.0378 107.367 68.0329 107.367ZM70.858 106.801C70.8132 106.801 70.7732 106.768 70.7644 106.719C70.7547 106.664 70.7888 106.611 70.8405 106.6C70.937 106.58 70.9925 106.569 71.0042 106.566C71.0598 106.552 71.1212 106.602 71.1212 106.665C71.1212 106.749 71.1124 106.751 70.8775 106.8C70.8697 106.8 70.8638 106.801 70.858 106.801ZM7.61769 106.616C7.5748 106.616 7.5358 106.585 7.52508 106.538C7.5124 106.483 7.5436 106.429 7.59527 106.415C8.04077 106.299 8.5126 106.186 8.99807 106.08C9.04974 106.068 9.10043 106.104 9.11018 106.159C9.1209 106.214 9.08776 106.268 9.03609 106.279C8.55354 106.384 8.08367 106.497 7.64109 106.613C7.63329 106.615 7.62549 106.616 7.61769 106.616ZM10.4252 105.999C10.3794 105.999 10.3395 105.964 10.3317 105.915C10.3229 105.86 10.358 105.808 10.4097 105.798C10.8669 105.714 11.3436 105.634 11.8281 105.559C11.8807 105.55 11.9285 105.589 11.9363 105.644C11.9441 105.7 11.908 105.751 11.8553 105.759C11.3728 105.833 10.8971 105.914 10.4418 105.998C10.436 105.998 10.4301 105.999 10.4252 105.999ZM13.2621 105.559C13.2143 105.559 13.1733 105.521 13.1675 105.47C13.1607 105.415 13.1987 105.364 13.2504 105.357C13.7202 105.297 14.1999 105.241 14.6775 105.19C14.7292 105.186 14.777 105.226 14.7818 105.281C14.7867 105.337 14.7487 105.387 14.6961 105.393C14.2203 105.443 13.7417 105.499 13.2728 105.559C13.2689 105.559 13.265 105.559 13.2621 105.559ZM16.1154 105.258C16.0657 105.258 16.0248 105.218 16.0209 105.165C16.017 105.109 16.056 105.06 16.1086 105.055C16.9938 104.983 17.5455 104.957 17.5504 104.957C17.6031 104.953 17.6469 104.999 17.6498 105.054C17.6518 105.11 17.6108 105.158 17.5582 105.16C17.5524 105.16 17.0045 105.185 16.1232 105.257C16.1203 105.258 16.1184 105.258 16.1154 105.258Z" fill="#AFCDFB"/>
<path d="M74.0433 112.154L85.7834 105.059L75.0737 105.734L75.9004 107.663L73.6875 110.277L74.0433 112.154Z" fill="#AFCDFB"/>
<path d="M85.7839 105.059L73.4813 107.464L64.5205 114.099L85.7839 105.059Z" fill="white"/>
<path d="M75.0748 105.734L85.7845 105.06L74.5815 101.558L75.0748 105.734Z" fill="white"/>
<path d="M130.105 16.9316L145.792 19.1813L135.468 12.594L134.902 14.652L131.068 15.227L130.105 16.9316Z" fill="#AFCDFB"/>
<path d="M145.793 19.181L132.812 12.8887L120 12.1265L145.793 19.181Z" fill="white"/>
<path d="M135.468 12.5939L145.792 19.1812L137.885 9L135.468 12.5939Z" fill="white"/>
<path d="M64.5459 59.1637C64.5459 59.1637 66.1905 58.5994 66.3767 58.2098C66.5639 57.8203 67.1059 57.6507 67.76 57.3796C68.4142 57.1084 68.807 56.6173 68.9006 56.6853C68.9942 56.7534 69.0127 57.0916 68.7515 57.346C68.4892 57.6004 67.3808 59.3784 66.9636 59.5815C66.5453 59.7856 64.5459 59.1637 64.5459 59.1637Z" fill="#FFB27D"/>
<path d="M197.831 137.237H187.261C186.695 136.802 187.653 135.814 188.654 135.747C189.089 135.717 189.639 135.8 190.268 135.92C190.413 134.17 191.243 126.301 194.374 126.617C197.894 126.971 194.374 130.082 193.378 131.925C192.641 133.289 191.863 135.246 191.509 136.169C191.794 136.225 192.091 136.28 192.393 136.33C192.86 135.033 194.595 130.667 196.803 130.921C199.395 131.219 198.353 132.97 196.516 134.008C195.168 134.772 193.514 135.859 192.727 136.383C193.393 136.482 194.089 136.548 194.795 136.533C196.605 136.494 197.489 136.978 197.831 137.237Z" fill="#82B378"/>
<path d="M16.8244 137.433C16.8244 137.433 12.807 127.436 9.9858 128.288C7.16459 129.14 16.8244 137.433 16.8244 137.433Z" fill="#82B378"/>
<path d="M15.285 137.434C14.9428 137.434 8.5322 131.405 8.10424 132.984C7.67725 134.561 15.285 137.434 15.285 137.434Z" fill="#82B378"/>
<path d="M22.124 137.434C22.124 137.434 19.4724 135.231 16.1151 135.804C12.7577 136.377 11.3247 137.005 9.21608 136.571C7.10748 136.136 6.03027 137.433 6.03027 137.433H22.124V137.434Z" fill="#82B378"/>
<path d="M85.3965 133.44H64.5114C63.3455 133.44 62.3999 132.584 62.3999 131.527V126.367C62.3999 125.311 63.3455 124.454 64.5114 124.454H85.3965C86.5624 124.454 87.508 125.311 87.508 126.367V131.527C87.508 132.584 86.5624 133.44 85.3965 133.44Z" fill="#FCECDB"/>
<path d="M81.1495 126.688H65.4174C65.2419 126.688 65.0977 126.558 65.0977 126.399C65.0977 126.24 65.241 126.109 65.4174 126.109H81.1495C81.325 126.109 81.4692 126.239 81.4692 126.399C81.4692 126.558 81.325 126.688 81.1495 126.688Z" fill="#EFCBAB"/>
<path d="M68.206 127.936H65.4159C65.2405 127.936 65.0962 127.806 65.0962 127.646C65.0962 127.487 65.2395 127.357 65.4159 127.357H68.206C68.3814 127.357 68.5257 127.487 68.5257 127.646C68.5257 127.806 68.3814 127.936 68.206 127.936Z" fill="#EFCBAB"/>
<path d="M76.9947 127.936H69.308C69.1326 127.936 68.9883 127.806 68.9883 127.646C68.9883 127.487 69.1316 127.357 69.308 127.357H76.9947C77.1702 127.357 77.3145 127.487 77.3145 127.646C77.3145 127.806 77.1702 127.936 76.9947 127.936Z" fill="#EFCBAB"/>
<path d="M81.1495 130.248H65.4174C65.2419 130.248 65.0977 130.118 65.0977 129.958C65.0977 129.799 65.241 129.668 65.4174 129.668H81.1495C81.325 129.668 81.4692 129.798 81.4692 129.958C81.4692 130.118 81.325 130.248 81.1495 130.248Z" fill="#EFCBAB"/>
<path d="M71.1256 131.496H65.4159C65.2405 131.496 65.0962 131.366 65.0962 131.206C65.0962 131.047 65.2395 130.917 65.4159 130.917H71.1256C71.3011 130.917 71.4454 131.046 71.4454 131.206C71.4454 131.366 71.3021 131.496 71.1256 131.496Z" fill="#EFCBAB"/>
<path d="M78.0729 131.496H72.3632C72.1877 131.496 72.0435 131.366 72.0435 131.206C72.0435 131.047 72.1868 130.917 72.3632 130.917H78.0729C78.2484 130.917 78.3926 131.046 78.3926 131.206C78.3926 131.366 78.2484 131.496 78.0729 131.496Z" fill="#EFCBAB"/>
<defs>
<linearGradient id="paint0_linear" x1="114.625" y1="13.9172" x2="114.625" y2="137.894" gradientUnits="userSpaceOnUse">
<stop stop-color="#BAD1E6" stop-opacity="0.28"/>
<stop offset="1" stop-color="#BAD6EF"/>
</linearGradient>
</defs>
</svg>
