<svg width="15" height="15" viewBox="0 0 15 15" fill="none" xmlns="http://www.w3.org/2000/svg">
<path d="M12.5508 8.9019C12.7543 7.37433 12.3821 5.74226 11.5025 4.30715C9.67041 1.31994 6.17983 0.114877 3.72139 1.62348C1.2617 3.13106 0.750964 6.78678 2.58221 9.77455C3.46181 11.2097 4.74719 12.282 6.20074 12.794C6.3946 12.8622 6.58801 12.9198 6.78114 12.9662C8.06301 13.2738 9.31685 13.0996 10.3634 12.4582C11.5667 11.7213 12.3443 10.4579 12.5508 8.9019ZM8.73005 9.27853C8.08521 8.48633 7.28643 8.0425 6.41799 7.56473C4.2318 6.36147 3.53807 4.13002 3.81564 1.77631C4.28414 2.72969 4.55286 3.75484 5.2024 4.61476C5.89464 5.53056 6.78204 6.01662 7.7523 6.56894C9.88212 7.78262 10.5502 9.98996 10.2698 12.3056C9.76141 11.2753 9.46845 10.186 8.73005 9.27853Z" fill="#F30B2C"/>
</svg>
