<?xml version="1.0" encoding="utf-8"?>
<!-- Generator: Adobe Illustrator 25.2.0, SVG Export Plug-In . SVG Version: 6.00 Build 0)  -->
<svg version="1.1" id="Capa_1" xmlns="http://www.w3.org/2000/svg" xmlns:xlink="http://www.w3.org/1999/xlink" x="0px" y="0px"
	 viewBox="0 0 15 15" style="enable-background:new 0 0 15 15;" xml:space="preserve">
<style type="text/css">
	.st0{fill:#FFFFFF;}
</style>
<path class="st0" d="M12.6,8.9c0.2-1.5-0.2-3.2-1-4.6c-1.8-3-5.3-4.2-7.8-2.7c-2.5,1.5-3,5.2-1.1,8.2c0.9,1.4,2.2,2.5,3.6,3
	c0.2,0.1,0.4,0.1,0.6,0.2c1.3,0.3,2.5,0.1,3.6-0.5C11.6,11.7,12.3,10.5,12.6,8.9z M8.7,9.3C8.1,8.5,7.3,8,6.4,7.6
	C4.2,6.4,3.5,4.1,3.8,1.8c0.5,1,0.7,2,1.4,2.8c0.7,0.9,1.6,1.4,2.5,2c2.1,1.2,2.8,3.4,2.5,5.7C9.8,11.3,9.5,10.2,8.7,9.3z"/>
</svg>
