<?xml version="1.0" encoding="utf-8"?>
<!-- Generator: Adobe Illustrator 24.3.0, SVG Export Plug-In . SVG Version: 6.00 Build 0)  -->
<svg version="1.1" id="Capa_1" xmlns="http://www.w3.org/2000/svg" xmlns:xlink="http://www.w3.org/1999/xlink" x="0px" y="0px"
	 viewBox="0 0 19 47.5" style="enable-background:new 0 0 19 47.5;" xml:space="preserve">
<style type="text/css">
	.st0{fill:#FAFAFA;}
</style>
<path class="st0" d="M17,0H2C0.9,0,0,0.8,0,1.9v13c0,1,0.9,1.9,2,1.9h15c1.1,0,2-0.8,2-1.9v-13C19,0.8,18.1,0,17,0z M17,14.8H2
	c-0.1,0-0.1,0-0.1,0c0,0,0,0,0,0l0-12.9c0,0,0,0,0.1,0h15c0.1,0,0.1,0,0.1,0l0,12.9C17.1,14.8,17.1,14.8,17,14.8z"/>
<path class="st0" d="M3.8,3.7h5.7v5.6H3.8V3.7z M10.4,11.1H3.8V13h11.4v-1.9h-3.8H10.4z M11.4,7.4h3.8v1.9h-3.8V7.4z M11.4,3.7h3.8
	v1.9h-3.8V3.7z"/>
<path class="st0" d="M16.2,47.3l-6.8-8.1l-6.8,8.1l-2.7-1.6l9.5-11.4l9.5,11.4L16.2,47.3z"/>
</svg>
