<svg width="119" height="58" viewBox="0 0 119 58" fill="none" xmlns="http://www.w3.org/2000/svg">
<path d="M22.8076 32.2719C22.5122 32.4109 21.8633 32.6311 21.0349 32.6311C19.1753 32.6311 17.9645 31.3682 17.9645 29.4854C17.9645 27.5852 19.2622 26.1949 21.2782 26.1949C21.9386 26.1949 22.5295 26.3629 22.8308 26.5251L22.5759 27.3767C22.3094 27.2377 21.8865 27.0812 21.2782 27.0812C19.8647 27.0812 19.1 28.1414 19.1 29.4159C19.1 30.841 20.0153 31.7215 21.2435 31.7215C21.8807 31.7215 22.3036 31.5709 22.6222 31.4261L22.8076 32.2719Z" fill="white"/>
<path d="M28.4559 31.009C28.4559 31.542 28.4791 32.0691 28.5428 32.4862H27.5348L27.4479 31.71H27.4074C27.0656 32.1966 26.3994 32.6253 25.5188 32.6253C24.2675 32.6253 23.6302 31.7447 23.6302 30.8526C23.6302 29.3637 24.9569 28.5469 27.3379 28.5585V28.431C27.3379 27.9328 27.1988 27.0059 25.9359 27.0175C25.3508 27.0175 24.7483 27.1855 24.3196 27.4752L24.0647 26.7221C24.5745 26.4034 25.3276 26.1891 26.1039 26.1891C27.9925 26.1891 28.4501 27.4752 28.4501 28.6975L28.4559 31.009ZM27.3726 29.3406C26.1503 29.3174 24.7599 29.5317 24.7599 30.7309C24.7599 31.4724 25.2465 31.8026 25.8027 31.8026C26.6195 31.8026 27.1409 31.2929 27.3205 30.7715C27.361 30.644 27.3726 30.5166 27.3726 30.4123V29.3406Z" fill="white"/>
<path d="M30.3792 32.4863V27.1682H29.5219V26.3166H30.3735V26.0211C30.3735 25.1521 30.5762 24.3643 31.086 23.8661C31.5089 23.4605 32.0651 23.2925 32.5922 23.2925C32.9977 23.2925 33.3338 23.3794 33.5481 23.4721L33.3975 24.3411C33.2295 24.2658 33.0151 24.2021 32.6849 24.2021C31.7291 24.2021 31.4857 25.0305 31.4857 25.9864V26.3166H32.9746V27.1682H31.4857V32.4863H30.3792Z" fill="white"/>
<path d="M34.446 29.6071C34.4692 31.1249 35.4251 31.7506 36.5605 31.7506C37.3658 31.7506 37.8582 31.6115 38.2695 31.4319L38.4723 32.2372C38.0783 32.4168 37.389 32.6311 36.4099 32.6311C34.5098 32.6311 33.3743 31.3682 33.3743 29.5086C33.3743 27.649 34.4692 26.1949 36.2709 26.1949C38.2985 26.1949 38.8199 27.956 38.8199 29.0857C38.8199 29.3174 38.8083 29.4796 38.7793 29.6071H34.446ZM37.7307 28.8018C37.7423 28.1009 37.4353 26.9944 36.1782 26.9944C35.0311 26.9944 34.5445 28.0256 34.4576 28.8018H37.7307ZM37.9856 23.6517L36.4331 25.4766H35.6452L36.7691 23.6517H37.9856Z" fill="white"/>
<path d="M90.5295 32.2719C90.2341 32.4109 89.5852 32.6311 88.7568 32.6311C86.8972 32.6311 85.6864 31.3682 85.6864 29.4854C85.6864 27.5852 86.9841 26.1949 89.0001 26.1949C89.6605 26.1949 90.2514 26.3629 90.5527 26.5251L90.2978 27.3767C90.0313 27.2377 89.6084 27.0812 89.0001 27.0812C87.5866 27.0812 86.8219 28.1414 86.8219 29.4159C86.8219 30.841 87.7372 31.7215 88.9653 31.7215C89.6026 31.7215 90.0255 31.5709 90.3441 31.4261L90.5295 32.2719Z" fill="white"/>
<path d="M97.348 29.3522C97.348 31.6347 95.7549 32.6311 94.2777 32.6311C92.6208 32.6311 91.3232 31.4087 91.3232 29.4564C91.3232 27.4057 92.6846 26.1949 94.382 26.1949C96.1489 26.1891 97.348 27.4752 97.348 29.3522ZM92.4644 29.4159C92.4644 30.7657 93.2291 31.7853 94.324 31.7853C95.3958 31.7853 96.1952 30.7773 96.1952 29.3869C96.1952 28.3442 95.6738 27.0291 94.3472 27.0291C93.0437 27.0349 92.4644 28.2573 92.4644 29.4159Z" fill="white"/>
<path d="M98.7616 27.985C98.7616 27.3361 98.75 26.8263 98.7094 26.3165H99.7059L99.7696 27.3361H99.7928C100.1 26.7626 100.812 26.1891 101.832 26.1891C102.684 26.1891 104.01 26.6989 104.01 28.8134V32.4862H102.886V28.9292C102.886 27.9328 102.516 27.1044 101.461 27.1044C100.737 27.1044 100.164 27.6258 99.955 28.2514C99.9028 28.3905 99.8797 28.5817 99.8797 28.7728V32.4804H98.7558V27.985H98.7616Z" fill="white"/>
<path d="M16.018 56.3656C14.4481 57.3273 11.7832 57.8313 9.35592 57.8313C2.71697 57.8313 -1.33514e-05 53.9673 -1.33514e-05 47.786C-1.33514e-05 42.1087 3.27891 37.8739 9.91206 37.8739C12.125 37.8739 14.4944 38.4358 15.9601 39.3917V44.6171L13.0288 44.3796L12.6001 41.7669C12.5479 41.5004 12.4379 41.3672 12.1714 41.2861C11.5863 41.1007 10.6768 40.9674 9.80199 40.9674C6.41879 40.9674 4.25795 43.2615 4.25795 47.7918C4.25795 52.5074 6.30872 54.8015 9.61661 54.8015C10.4972 54.8015 11.5863 54.6682 12.2815 54.4539C12.6001 54.3728 12.6812 54.2917 12.7623 53.892L13.162 51.4125H16.0122L16.018 56.3656Z" fill="#F8C802"/>
<path d="M17.6691 50.6651C17.6691 46.2392 19.9863 43.36 24.8642 43.36C29.7941 43.36 31.7117 46.2913 31.7117 50.3697C31.7117 54.8999 29.4176 57.8313 24.5166 57.8313C19.6388 57.8313 17.6691 54.8478 17.6691 50.6651ZM27.5058 50.5029C27.5058 47.3573 26.5442 46.2392 24.812 46.2392C23.0509 46.2392 21.8807 47.3341 21.8807 50.5319C21.8807 53.7587 22.9177 55.039 24.7078 55.039C26.4399 55.0332 27.5058 53.834 27.5058 50.5029Z" fill="#F8C802"/>
<path d="M32.8298 57.5127V55.4098L34.1622 55.2244C34.5329 55.1722 34.5909 55.0911 34.5909 54.6914V40.6198C34.5909 40.3244 34.5098 40.139 34.2433 40.0579L32.7776 39.5539L33.0731 37.3931H38.6171V54.6914C38.6171 55.1201 38.6461 55.1722 39.0458 55.2244L40.3493 55.4098V57.5127H32.8298Z" fill="#F8C802"/>
<path d="M41.4152 50.6651C41.4152 46.2392 43.7324 43.36 48.6103 43.36C53.5402 43.36 55.4578 46.2913 55.4578 50.3697C55.4578 54.8999 53.1637 57.8313 48.2627 57.8313C43.3849 57.8313 41.4152 54.8478 41.4152 50.6651ZM51.2462 50.5029C51.2462 47.3573 50.2845 46.2392 48.5523 46.2392C46.7912 46.2392 45.621 47.3341 45.621 50.5319C45.621 53.7587 46.658 55.039 48.4481 55.039C50.1802 55.0332 51.2462 53.834 51.2462 50.5029Z" fill="#F8C802"/>
<path d="M73.6599 57.5126V48.904C73.6599 47.8671 73.5556 46.6099 72.1652 46.6099C71.4179 46.6099 70.6996 46.8764 70.0044 47.3283C70.0565 47.757 70.0855 48.1799 70.0855 48.6317V54.6798C70.0855 55.1317 70.1145 55.1838 70.5142 55.2417L71.5801 55.4039V57.5069H66.065V48.7708C66.065 47.7859 65.9839 46.6099 64.6515 46.6099C63.8521 46.6099 62.9715 47.0097 62.4385 47.4615V54.6856C62.4385 55.1375 62.4675 55.1375 62.8672 55.2186L64.1707 55.4039V57.5069H56.7902V55.4039L57.9894 55.2186C58.3602 55.1664 58.4181 55.0853 58.4181 54.6856V46.8533C58.4181 46.5578 58.337 46.3724 58.0705 46.2913L56.6338 45.7873L56.9293 43.6265H61.6217L61.836 45.011L61.9693 45.04C63.1685 44.0552 64.5299 43.36 66.233 43.36C67.5365 43.36 68.7357 43.7076 69.483 44.9589C70.3636 44.2637 71.9103 43.36 73.7757 43.36C76.626 43.36 77.6919 44.7735 77.6919 47.8613V54.6856C77.6919 55.1143 77.7209 55.1896 78.1206 55.2475L79.453 55.4097V57.5126H73.6599Z" fill="#F8C802"/>
<path d="M81.4401 57.5127C81.6254 56.3135 81.8398 54.9289 81.8398 53.6197V40.6198C81.8398 40.3244 81.7587 40.139 81.4922 40.0579L80.0265 39.5539L80.322 37.3931H85.8139V44.7735L85.9182 44.8025C87.0652 43.8698 88.3165 43.3658 89.9444 43.3658C92.8236 43.3658 95.0887 45.2312 95.0887 50.1901C95.0887 55.682 92.7715 57.8371 89.4925 57.8371C87.7314 57.8371 86.399 57.0898 85.5764 56.1571L85.4431 56.186L85.2577 57.5185L81.4401 57.5127ZM85.8371 53.6776C86.4511 54.2395 87.3549 54.7146 88.2876 54.7146C90.0487 54.7146 90.8713 53.0635 90.8713 50.3987C90.8713 48.3189 90.2051 46.5057 88.4208 46.5057C87.4591 46.5057 86.4743 47.0097 85.8371 47.4384V53.6776Z" fill="#F8C802"/>
<path d="M96.4153 57.5126V55.4097L97.7767 55.2243C98.1475 55.1722 98.2054 55.0911 98.2054 54.6914V46.8533C98.2054 46.5578 98.1243 46.3724 97.8578 46.2913L96.4211 45.7873L96.7166 43.6265H102.232V54.6856C102.232 55.1143 102.261 55.1664 102.66 55.2186L104.022 55.4039V57.5068H96.4153V57.5126ZM99.8507 41.4946C98.3329 41.4946 97.4523 40.614 97.4523 39.0962C97.4523 37.5784 98.3329 36.75 99.8507 36.75C101.397 36.75 102.278 37.5784 102.278 39.0962C102.278 40.6198 101.397 41.4946 99.8507 41.4946Z" fill="#F8C802"/>
<path d="M113.951 57.5127L113.685 56.076L113.551 56.047C112.538 57.0318 111.205 57.8313 109.073 57.8313C105.713 57.8313 105.18 55.5372 105.18 53.8861C105.18 51.2213 106.831 49.9931 110.162 49.7846L113.227 49.5702V48.1046C113.227 46.8533 113.094 46.0017 111.443 46.0017C110.162 46.0017 109.496 46.187 109.496 47.786L105.737 47.4673C105.737 43.8698 109.015 43.3658 111.466 43.3658C115.515 43.3658 117.143 44.4607 117.143 48.1915V54.6682C117.143 55.0969 117.172 55.149 117.572 55.2012L118.852 55.4155V57.5184L113.951 57.5127ZM113.233 51.7832L111.42 51.9165C109.85 52.0207 109.288 52.4205 109.288 53.4864C109.288 54.5524 109.925 54.9521 110.806 54.9521C111.709 54.9521 112.619 54.4481 113.233 53.9904V51.7832Z" fill="#F8C802"/>
<path d="M67.5771 14.0641C68.8573 15.2922 70.0797 16.5783 71.2383 17.9165C72.0899 18.9014 72.9068 19.9268 73.7352 20.9348C74.8938 19.9557 75.5774 18.4901 75.728 16.9896C75.7917 16.3466 75.7628 15.6862 75.618 15.0547C75.5021 14.5333 75.2877 14.0467 75.0502 13.5717C74.4477 12.3725 73.6367 10.7562 74.6679 9.53965C75.2993 8.79812 76.3653 8.70543 77.2632 8.9024C78.8216 9.2442 80.0729 10.2001 80.9766 11.4977C82.1063 13.1256 82.5755 15.0953 82.674 17.0534C82.9405 22.4294 81.7645 27.3941 77.7324 31.2234C74.2334 34.5371 69.9117 37.1092 65.3177 38.5691C62.3864 39.5018 59.4029 39.8668 56.3673 39.2064C54.2528 38.7487 52.2368 37.8334 50.4815 36.5647C47.2547 34.2358 45.0243 30.8063 44.2249 26.9075C43.9932 25.772 43.8889 24.6134 43.9178 23.4606C43.9468 22.3077 44.2075 21.2418 44.3929 20.1179C44.4276 19.8978 44.474 19.724 44.2539 19.5734C41.3225 17.5574 39.2312 14.6376 39.4166 10.9358C39.4861 9.51068 40.3261 7.84805 41.2356 6.77632C42.4696 5.32224 44.3523 4.54595 46.2525 4.69078C47.1968 4.7603 48.1179 5.05575 48.9347 5.53658C49.1375 5.65245 51.0492 7.0428 50.8986 7.24556C51.3389 6.64887 51.8313 5.98265 52.5149 5.62348C53.3607 5.1832 54.2992 5.38596 55.1797 5.6061C57.0509 6.07534 58.7425 7.09494 60.324 8.17246C62.8904 9.93358 65.3177 11.909 67.5771 14.0641ZM47.7761 11.1443C47.5675 10.7446 47.023 10.4318 46.7043 10.2406C46.1482 9.91041 45.511 9.58599 44.9838 10.1595C44.3581 10.8315 44.3581 11.9496 44.6825 12.7548C44.8448 13.1546 45.0765 13.5195 45.3488 13.8613C45.4009 13.9251 46.183 14.7419 46.1946 14.7187C46.6754 13.7686 47.1504 12.8128 47.7066 11.8975C47.7761 11.7874 47.8456 11.6657 47.863 11.5383C47.8746 11.3935 47.8398 11.266 47.7761 11.1443ZM51.3215 9.02406C49.4561 11.5267 47.8919 14.1394 46.7912 17.0128C45.6094 20.1006 44.9432 23.2752 45.6152 26.5715C47.2373 34.456 54.751 39.357 62.6239 37.7349C66.9514 36.8427 70.7227 34.792 74.245 32.2082C74.2913 32.1735 74.3145 32.1097 74.3493 32.0576C71.4874 31.2234 69.0891 29.6013 66.7718 27.846C63.2843 25.2043 60.1445 22.1919 57.329 18.8434C54.8611 15.9063 52.5323 12.8533 51.3215 9.02406ZM71.1746 29.0104C71.9277 29.6824 74.4014 30.6904 75.3631 30.7542C75.8729 30.7889 76.2842 30.6615 76.6607 30.2849C77.2516 29.694 77.8193 29.0857 78.2944 28.4021C80.6116 25.0769 81.4169 21.3287 81.2315 17.3488C81.1504 15.5413 80.7507 13.786 79.6963 12.2508C79.0417 11.2892 78.2017 10.565 77.0604 10.2464C76.5854 10.1132 76.093 10.1885 75.7628 10.5477C75.4384 10.901 75.5948 11.3529 75.7628 11.7468C75.8902 12.0423 76.0466 12.3262 76.2089 12.61C77.941 15.663 77.408 19.4633 74.8706 21.8848C73.4108 23.2752 71.6265 24.0457 69.68 24.4744C68.1738 24.8104 66.6502 24.7698 65.0223 24.5613C66.3431 25.7315 67.6524 26.7337 68.9906 27.6896C69.2049 27.846 69.4077 27.8865 69.6568 27.846C71.9393 27.4984 73.8858 26.5136 75.4615 24.822C75.8265 24.4338 76.2031 24.0689 76.7071 24.5323C77.2111 24.99 76.9098 25.4187 76.5391 25.801C76.4695 25.8705 76.4058 25.9458 76.3363 26.0154C74.9112 27.51 73.1848 28.489 71.1746 29.0104ZM72.6055 21.8211C71.7134 20.7494 70.8907 19.7066 70.0102 18.7218C66.4706 14.7651 62.6123 11.1733 58.0184 8.44474C56.8192 7.73219 55.5795 7.09494 54.1833 6.84004C53.0189 6.62569 52.5207 7.09494 52.6887 8.26515C52.735 8.57219 52.8451 8.86185 52.903 9.16889C52.9552 9.43537 53.0884 9.52806 53.3665 9.52227C54.0616 9.50489 54.751 9.57441 55.4172 9.77137C58.3544 10.6403 60.6427 12.2277 61.3494 15.4371C61.6507 16.7927 61.5348 18.1888 61.5696 19.5676C61.6159 21.6299 62.3516 22.5221 64.3677 22.9971C65.1266 23.1767 65.897 23.2289 66.6733 23.2694C68.7589 23.3621 70.7112 22.8929 72.6055 21.8211ZM49.9659 8.3984C49.4909 7.79591 48.9173 7.32087 48.2801 6.93273C46.461 5.80886 44.6825 5.78569 43.269 6.86321C41.1661 8.46212 40.3319 11.1617 41.1719 13.6644C41.8265 15.6109 43.101 17.0592 44.8216 18.2062C45.3835 16.3582 45.8122 16.2713 45.2792 15.8368C43.7267 14.5681 42.7013 12.9634 43.1184 10.8257C43.3212 9.78875 43.9526 8.79233 45.0128 8.48529C45.7311 8.27674 46.5132 8.3984 47.1504 8.76337C47.301 8.85026 48.8304 10.0437 48.7609 10.1421C48.8536 10.0089 49.9659 8.3984 49.9659 8.3984ZM60.0518 19.7414C60.0518 18.7044 60.0691 17.6964 60.046 16.6884C60.0112 15.0547 59.3392 13.7281 58.0879 12.6853C56.8192 11.631 55.3767 11.0459 53.6561 10.9995C55.4288 14.2437 57.5433 17.1345 60.0518 19.7414Z" fill="#030202"/>
<path d="M72.4665 1.57406C73.1732 2.30979 73.741 3.13242 74.0538 4.11725C74.2218 4.63864 74.2392 5.16002 74.1697 5.69299C73.9032 6.55038 73.3702 7.15286 72.4781 7.39038C70.7923 7.56997 69.512 6.77052 68.3533 5.6814C68.0984 5.36278 67.8435 5.04416 67.5886 4.71974C67.2063 3.97243 66.8008 3.2309 66.8008 2.35614C66.8066 0.791987 68.1506 -0.273952 69.68 0.0620501C70.3288 0.206879 70.9197 0.490743 71.5048 0.79778C71.8292 1.06426 72.1478 1.31916 72.4665 1.57406ZM69.1354 1.47558C68.5213 1.4582 68.1853 1.85793 68.2491 2.52993C68.3939 3.9898 70.294 5.86678 71.7423 5.97685C72.4317 6.02899 72.8083 5.65244 72.7561 4.96885C72.6461 3.43946 70.6532 1.51613 69.1354 1.47558Z" fill="#030202"/>
<path d="M51.3215 9.02405C52.5265 12.8475 54.8611 15.9005 57.3406 18.855C60.1502 22.2035 63.2959 25.2159 66.7834 27.8576C69.1007 29.6129 71.4932 31.2292 74.3608 32.0692C74.3261 32.1213 74.3029 32.1851 74.2566 32.2198C70.7343 34.8036 66.963 36.8543 62.6355 37.7465C54.7626 39.3686 47.2431 34.4618 45.6268 26.5831C44.949 23.2868 45.6152 20.1121 46.8028 17.0244C47.8977 14.1452 49.4561 11.5267 51.3215 9.02405ZM60.9845 26.8727C60.996 24.2311 59.1886 22.4352 56.5469 22.4584C53.2622 22.4815 49.879 25.5345 49.4503 28.8598C49.1085 31.5246 50.4236 33.5291 52.8219 33.9809C56.6454 34.6993 60.9729 30.9337 60.9845 26.8727Z" fill="#1916A3"/>
<path d="M71.1746 29.0104C73.1848 28.489 74.9112 27.51 76.3363 26.0211C76.4058 25.9516 76.4695 25.8763 76.5391 25.8068C76.9098 25.4244 77.2111 24.9958 76.7071 24.5381C76.2031 24.0804 75.8265 24.4396 75.4615 24.8278C73.8858 26.5194 71.9393 27.51 69.6568 27.8518C69.4077 27.8865 69.2049 27.846 68.9906 27.6954C67.6466 26.7395 66.3431 25.7373 65.0223 24.5671C66.6502 24.7756 68.1738 24.8162 69.68 24.4802C71.6265 24.0515 73.4108 23.281 74.8706 21.8906C77.408 19.4691 77.941 15.6688 76.2088 12.6158C76.0466 12.3319 75.8902 12.0481 75.7628 11.7526C75.5948 11.3587 75.4326 10.9068 75.7628 10.5534C76.0988 10.1943 76.5854 10.119 77.0604 10.2522C78.2017 10.5708 79.0359 11.295 79.6963 12.2566C80.7507 13.7918 81.1504 15.5471 81.2315 17.3546C81.4111 21.3345 80.6116 25.0769 78.2944 28.4079C77.8193 29.0915 77.2458 29.6998 76.6607 30.2907C76.29 30.6672 75.8786 30.7947 75.363 30.7599C74.4014 30.6904 71.9277 29.6824 71.1746 29.0104Z" fill="#FC9601"/>
<path d="M72.6055 21.8211C70.7112 22.8929 68.7589 23.3621 66.6675 23.2578C65.897 23.2173 65.1208 23.1651 64.3619 22.9856C62.3458 22.5163 61.6101 21.6184 61.5638 19.556C61.5348 18.1772 61.6449 16.7869 61.3436 15.4255C60.6369 12.2219 58.3544 10.6346 55.4114 9.7598C54.751 9.56284 54.0559 9.49332 53.3607 9.5107C53.0826 9.51649 52.9494 9.4238 52.8972 9.15732C52.8393 8.85607 52.7292 8.56062 52.6829 8.25358C52.5091 7.07758 53.0073 6.60833 54.1775 6.82847C55.5737 7.08916 56.8134 7.72061 58.0126 8.43317C62.6065 11.1617 66.4648 14.7535 70.0044 18.7102C70.8907 19.7066 71.7134 20.7494 72.6055 21.8211Z" fill="#C51E1E"/>
<path d="M49.9659 8.39839C49.5604 8.9835 49.1606 9.56281 48.7551 10.1479C48.3786 9.80033 48.0368 9.42957 47.637 9.12254C45.7427 7.65687 43.5645 8.46791 43.1126 10.8199C42.7013 12.9634 43.773 14.5044 45.2734 15.831C45.5168 16.0453 45.5747 16.2018 45.453 16.4972C45.2271 17.036 45.0417 17.5979 44.8216 18.2004C43.0952 17.0534 41.8265 15.6051 41.1719 13.6586C40.3319 11.1559 41.1661 8.46212 43.269 6.85742C44.6825 5.77989 46.461 5.80306 48.2801 6.92693C48.9173 7.32666 49.4909 7.7959 49.9659 8.39839Z" fill="#1916A3"/>
<path d="M60.0518 19.7414C57.5433 17.1287 55.423 14.2379 53.6619 10.9937C55.3767 11.0401 56.8192 11.6252 58.0937 12.6795C59.345 13.7223 60.017 15.0489 60.0518 16.6826C60.0691 17.6964 60.0518 18.7044 60.0518 19.7414Z" fill="#FC9601"/>
<path d="M69.1354 1.47555C70.6532 1.5219 72.6519 3.43943 72.7619 4.96882C72.8141 5.6582 72.4375 6.03476 71.7481 5.97683C70.2998 5.86676 68.3939 3.98978 68.2549 2.5299C68.1853 1.8579 68.5213 1.45238 69.1354 1.47555Z" fill="#FC9601"/>
<path d="M60.9845 26.8727C60.9729 30.9337 56.6454 34.6993 52.8219 33.9809C50.4236 33.5291 49.1027 31.5246 49.4503 28.8598C49.879 25.5345 53.2622 22.4873 56.5469 22.4584C59.1944 22.4352 60.996 24.2311 60.9845 26.8727ZM51.5648 31.7448C51.6401 31.3914 51.7212 31.1655 51.7386 30.9279C51.8892 28.9003 53.5808 27.6027 55.2029 27.5158C56.1124 27.4694 56.8597 26.838 57.0857 25.9458C57.2479 25.326 57.2653 24.6713 57.5433 24.0688C57.1262 23.8719 56.7149 23.8661 56.3152 23.9124C53.8357 24.1847 51.5822 26.166 50.9797 28.5701C50.7074 29.6766 50.7653 30.7136 51.5648 31.7448ZM52.8045 32.4863C53.0768 32.5268 53.2796 32.5848 53.4881 32.5906C56.2515 32.689 59.1712 30.1864 59.4956 27.4115C59.5999 26.5193 59.5188 25.6504 58.8178 24.8509C58.7425 25.1753 58.673 25.4129 58.6324 25.6562C58.3312 27.6432 57.2189 28.7207 55.1971 29.0046C54.247 29.1378 53.5634 29.6419 53.3027 30.5803C53.1405 31.1944 53.129 31.8548 52.8045 32.4863Z" fill="#030202"/>
<path d="M51.5648 31.7448C50.7654 30.7136 50.7016 29.6766 50.9797 28.5759C51.5764 26.166 53.8357 24.1905 56.3152 23.9182C56.7207 23.8719 57.1262 23.8777 57.5433 24.0746C57.2711 24.6829 57.2479 25.3317 57.0857 25.9516C56.854 26.8438 56.1124 27.4752 55.2029 27.5216C53.5866 27.6027 51.8892 28.9003 51.7386 30.9337C51.7212 31.1654 51.6401 31.3914 51.5648 31.7448Z" fill="#C51E1E"/>
<path d="M52.8045 32.4863C53.1289 31.8549 53.1347 31.1945 53.3085 30.5804C53.5692 29.6419 54.2528 29.1379 55.2029 29.0046C57.2247 28.7208 58.337 27.6433 58.6382 25.6562C58.673 25.4129 58.7483 25.1754 58.8236 24.851C59.5188 25.6562 59.6057 26.5252 59.5014 27.4115C59.177 30.1864 56.2515 32.6891 53.4939 32.5906C53.2854 32.5848 53.0768 32.5327 52.8045 32.4863Z" fill="#C51E1E"/>
</svg>
