<svg width="176" height="59" viewBox="0 0 176 59" fill="none" xmlns="http://www.w3.org/2000/svg">
<path d="M81.1359 9.60936C80.7716 9.76058 79.9716 10 78.9501 10C76.6573 10 75.1644 8.62646 75.1644 6.57876C75.1644 4.51215 76.7644 3 79.2501 3C80.0644 3 80.793 3.18272 81.1644 3.35914L80.8501 4.28533C80.5216 4.13411 80.0001 3.964 79.2501 3.964C77.5073 3.964 76.5644 5.11701 76.5644 6.50315C76.5644 8.05311 77.693 9.0108 79.2073 9.0108C79.993 9.0108 80.5144 8.84699 80.9073 8.68947L81.1359 9.60936Z" fill="white"/>
<path d="M87.0583 8.24212C87.0583 8.82178 87.0866 9.39514 87.1644 9.84878H85.9333L85.8272 9.0045H85.7776C85.3602 9.53375 84.5465 10 83.471 10C81.9427 10 81.1644 9.0423 81.1644 8.07201C81.1644 6.45274 82.7847 5.56436 85.6927 5.57696V5.43834C85.6927 4.89649 85.5229 3.88839 83.9805 3.90099C83.2658 3.90099 82.53 4.08371 82.0064 4.39874L81.6951 3.57966C82.3177 3.23312 83.2375 3 84.1857 3C86.4923 3 87.0512 4.39874 87.0512 5.72817L87.0583 8.24212ZM85.7352 6.42754C84.2423 6.40234 82.5441 6.63546 82.5441 7.93969C82.5441 8.74617 83.1385 9.10531 83.8177 9.10531C84.8154 9.10531 85.4522 8.55085 85.6715 7.9838C85.721 7.84518 85.7352 7.70657 85.7352 7.59316V6.42754Z" fill="white"/>
<path d="M89.0162 10V4.2155H88.1644V3.28923H89.0105V2.96786C89.0105 2.02268 89.2119 1.16572 89.7184 0.62382C90.1385 0.182736 90.691 0 91.2148 0C91.6177 0 91.9515 0.0945188 92.1644 0.195338L92.0148 1.14052C91.8479 1.0586 91.6349 0.989288 91.3069 0.989288C90.3572 0.989288 90.1155 1.89036 90.1155 2.93006V3.28923H91.5946V4.2155H90.1155V10H89.0162Z" fill="white"/>
<path d="M93.3453 6.63226C93.3708 8.32258 94.424 9.01935 95.6751 9.01935C96.5623 9.01935 97.1049 8.86452 97.558 8.66452L97.7815 9.56129C97.3474 9.76129 96.5878 10 95.5091 10C93.4155 10 92.1644 8.59355 92.1644 6.52258C92.1644 4.45161 93.3708 2.83226 95.3559 2.83226C97.59 2.83226 98.1644 4.79355 98.1644 6.05161C98.1644 6.30968 98.1517 6.49032 98.1197 6.63226C98.1197 6.63226 93.3453 6.63226 93.3453 6.63226ZM96.9644 5.73548C96.9772 4.95484 96.6389 3.72258 95.2538 3.72258C93.99 3.72258 93.4538 4.87097 93.358 5.73548H96.9644ZM97.2453 0L95.5346 2.03226H94.6666L95.9049 0H97.2453Z" fill="white"/>
<path d="M109.136 9.60936C108.772 9.76058 107.972 10 106.95 10C104.657 10 103.164 8.62646 103.164 6.57876C103.164 4.51215 104.764 3 107.25 3C108.064 3 108.793 3.18272 109.164 3.35914L108.85 4.28533C108.522 4.13411 108 3.964 107.25 3.964C105.507 3.964 104.564 5.11701 104.564 6.50315C104.564 8.05311 105.693 9.0108 107.207 9.0108C107.993 9.0108 108.514 8.84699 108.907 8.68947L109.136 9.60936Z" fill="white"/>
<path d="M117.164 6.43385C117.164 8.9163 115.313 10 113.597 10C111.672 10 110.164 8.67057 110.164 6.54727C110.164 4.31685 111.746 3.00002 113.718 3.00002C115.771 2.99372 117.164 4.39246 117.164 6.43385ZM111.49 6.50316C111.49 7.9712 112.379 9.08011 113.651 9.08011C114.896 9.08011 115.825 7.98381 115.825 6.47166C115.825 5.33755 115.219 3.90731 113.678 3.90731C112.163 3.91361 111.49 5.24304 111.49 6.50316Z" fill="white"/>
<path d="M118.223 4.99632C118.223 4.27507 118.21 3.70837 118.164 3.14168H119.292L119.364 4.27507H119.391C119.738 3.63753 120.545 3 121.699 3C122.663 3 124.164 3.5667 124.164 5.9172V10H122.892V6.046C122.892 4.93836 122.473 4.01748 121.279 4.01748C120.46 4.01748 119.81 4.59706 119.574 5.29255C119.515 5.4471 119.489 5.65961 119.489 5.87212V9.99356H118.217V4.99632H118.223Z" fill="white"/>
<path d="M88.6417 29.7886C87.3208 30.5977 85.0786 31.0218 83.0363 31.0218C77.4504 31.0218 75.1644 27.7706 75.1644 22.5698C75.1644 17.7931 77.9233 14.23 83.5043 14.23C85.3662 14.23 87.3598 14.7028 88.593 15.507V19.9036L86.1266 19.7038L85.7659 17.5055C85.722 17.2813 85.6294 17.1691 85.4052 17.1009C84.9129 16.9449 84.1477 16.8328 83.4117 16.8328C80.5651 16.8328 78.747 18.763 78.747 22.5747C78.747 26.5423 80.4725 28.4725 83.2557 28.4725C83.9966 28.4725 84.9129 28.3604 85.4978 28.1801C85.7659 28.1118 85.8341 28.0436 85.9024 27.7073L86.2387 25.6211H88.6368L88.6417 29.7886Z" fill="#F8C802"/>
<path d="M90.0309 24.9923C90.0309 21.2684 91.9806 18.8459 96.0847 18.8459C100.233 18.8459 101.846 21.3123 101.846 24.7438C101.846 28.5554 99.9159 31.0218 95.7922 31.0218C91.6881 31.0218 90.0309 28.5115 90.0309 24.9923ZM98.3074 24.8559C98.3074 22.2091 97.4982 21.2684 96.0408 21.2684C94.5591 21.2684 93.5745 22.1896 93.5745 24.8802C93.5745 27.5952 94.4469 28.6724 95.9531 28.6724C97.4105 28.6675 98.3074 27.6585 98.3074 24.8559Z" fill="#F8C802"/>
<path d="M102.787 30.7537V28.9843L103.908 28.8284C104.22 28.7845 104.269 28.7163 104.269 28.3799V16.5404C104.269 16.2918 104.2 16.1358 103.976 16.0676L102.743 15.6435L102.992 13.8254H107.656V28.3799C107.656 28.7406 107.681 28.7845 108.017 28.8284L109.114 28.9843V30.7537H102.787Z" fill="#F8C802"/>
<path d="M110.01 24.9923C110.01 21.2684 111.96 18.8459 116.064 18.8459C120.212 18.8459 121.826 21.3123 121.826 24.7438C121.826 28.5554 119.895 31.0218 115.772 31.0218C111.668 31.0218 110.01 28.5115 110.01 24.9923ZM118.282 24.8559C118.282 22.2091 117.473 21.2684 116.015 21.2684C114.534 21.2684 113.549 22.1896 113.549 24.8802C113.549 27.5952 114.422 28.6724 115.928 28.6724C117.385 28.6675 118.282 27.6585 118.282 24.8559Z" fill="#F8C802"/>
<path d="M137.14 30.7537V23.5106C137.14 22.6381 137.053 21.5804 135.883 21.5804C135.254 21.5804 134.65 21.8046 134.065 22.1848C134.109 22.5455 134.133 22.9013 134.133 23.2815V28.3702C134.133 28.7504 134.157 28.7942 134.494 28.843L135.39 28.9795V30.7488H130.75V23.3985C130.75 22.5698 130.682 21.5804 129.561 21.5804C128.888 21.5804 128.147 21.9167 127.699 22.2969V28.3751C127.699 28.7553 127.723 28.7553 128.06 28.8235L129.156 28.9795V30.7488H122.947V28.9795L123.956 28.8235C124.267 28.7796 124.316 28.7114 124.316 28.3751V21.7851C124.316 21.5365 124.248 21.3805 124.024 21.3123L122.815 20.8882L123.064 19.0701H127.012L127.192 20.2351L127.304 20.2594C128.313 19.4308 129.459 18.8459 130.892 18.8459C131.988 18.8459 132.997 19.1384 133.626 20.1912C134.367 19.6063 135.668 18.8459 137.238 18.8459C139.636 18.8459 140.533 20.0352 140.533 22.6332V28.3751C140.533 28.7358 140.557 28.7991 140.894 28.8479L142.015 28.9843V30.7537H137.14Z" fill="#F8C802"/>
<path d="M143.687 30.7537C143.842 29.7447 144.023 28.5798 144.023 27.4782V16.5404C144.023 16.2918 143.955 16.1358 143.73 16.0676L142.497 15.6435L142.746 13.8254H147.367V20.0352L147.454 20.0596C148.419 19.2748 149.472 18.8508 150.842 18.8508C153.264 18.8508 155.17 20.4203 155.17 24.5926C155.17 29.2134 153.221 31.0266 150.462 31.0266C148.98 31.0266 147.859 30.3979 147.167 29.6131L147.055 29.6375L146.899 30.7586L143.687 30.7537ZM147.386 27.5269C147.903 27.9997 148.663 28.3994 149.448 28.3994C150.93 28.3994 151.622 27.0103 151.622 24.7681C151.622 23.0183 151.061 21.4926 149.56 21.4926C148.751 21.4926 147.922 21.9167 147.386 22.2774V27.5269Z" fill="#F8C802"/>
<path d="M156.286 30.7537V28.9844L157.432 28.8284C157.744 28.7845 157.793 28.7163 157.793 28.38V21.7851C157.793 21.5365 157.724 21.3805 157.5 21.3123L156.291 20.8882L156.54 19.0702H161.18V28.3751C161.18 28.7358 161.205 28.7796 161.541 28.8235L162.686 28.9795V30.7488H156.286V30.7537V30.7537ZM159.177 17.2764C157.9 17.2764 157.159 16.5355 157.159 15.2585C157.159 13.9814 157.9 13.2844 159.177 13.2844C160.478 13.2844 161.219 13.9814 161.219 15.2585C161.219 16.5404 160.478 17.2764 159.177 17.2764Z" fill="#F8C802"/>
<path d="M171.041 30.7537L170.817 29.5449L170.704 29.5205C169.851 30.3491 168.73 31.0218 166.937 31.0218C164.11 31.0218 163.661 29.0916 163.661 27.7024C163.661 25.4603 165.05 24.4269 167.853 24.2515L170.431 24.0711V22.8379C170.431 21.7851 170.319 21.0686 168.93 21.0686C167.853 21.0686 167.292 21.2246 167.292 22.5699L164.129 22.3018C164.129 19.2749 166.888 18.8508 168.95 18.8508C172.357 18.8508 173.726 19.772 173.726 22.911V28.3605C173.726 28.7211 173.751 28.765 174.087 28.8089L175.164 28.9892V30.7586L171.041 30.7537ZM170.436 25.9331L168.911 26.0452C167.59 26.1329 167.117 26.4692 167.117 27.3661C167.117 28.263 167.653 28.5993 168.394 28.5993C169.154 28.5993 169.92 28.1752 170.436 27.7902V25.9331Z" fill="#F8C802"/>
<path d="M42.0342 20.9845C43.9445 22.817 45.7683 24.7359 47.4971 26.7326C48.7677 28.202 49.9865 29.732 51.2225 31.236C52.9513 29.7752 53.9712 27.5883 54.196 25.3496C54.2911 24.3901 54.2478 23.4047 54.0318 22.4626C53.8589 21.6846 53.5391 20.9586 53.1847 20.2498C52.2857 18.4605 51.0756 16.0489 52.6142 14.2337C53.5563 13.1273 55.1468 12.989 56.4866 13.2829C58.8117 13.7929 60.6788 15.2191 62.0272 17.1553C63.7127 19.5842 64.4129 22.5231 64.5598 25.4447C64.9574 33.466 63.2028 40.8737 57.1867 46.5872C51.9659 51.5315 45.5177 55.3693 38.6632 57.5475C34.2895 58.9391 29.8379 59.4837 25.3086 58.4983C22.1536 57.8154 19.1456 56.4497 16.5266 54.5568C11.712 51.082 8.38417 45.9649 7.19134 40.1477C6.84559 38.4535 6.69 36.7247 6.73322 35.0046C6.77644 33.2845 7.16541 31.6941 7.44201 30.0172C7.49387 29.6887 7.56302 29.4294 7.23456 29.2047C2.86083 26.1967 -0.25956 21.8402 0.0170391 16.3169C0.120764 14.1905 1.37411 11.7098 2.73117 10.1107C4.57229 7.9411 7.3815 6.78284 10.2166 6.99893C11.6256 7.10265 12.9999 7.54348 14.2187 8.26091C14.5212 8.43379 17.3737 10.5083 17.1489 10.8108C17.8059 9.92051 18.5406 8.92648 19.5605 8.39057C20.8225 7.73365 22.2228 8.03618 23.5366 8.36464C26.3286 9.06478 28.8525 10.5861 31.2123 12.1938C35.0415 14.8215 38.6632 17.769 42.0342 20.9845ZM12.49 16.6281C12.1788 16.0316 11.3663 15.5649 10.8909 15.2796C10.0611 14.7869 9.11024 14.3029 8.32366 15.1586C7.39014 16.1613 7.39014 17.8295 7.87419 19.031C8.11622 19.6274 8.46197 20.172 8.86822 20.682C8.94602 20.777 10.1129 21.9958 10.1302 21.9612C10.8476 20.5437 11.5564 19.1174 12.3862 17.7517C12.4899 17.5875 12.5937 17.406 12.6196 17.2158C12.6369 16.9997 12.585 16.8096 12.49 16.6281ZM17.7799 13.4644C14.9966 17.1985 12.6628 21.0969 11.0205 25.3842C9.25719 29.9913 8.26316 34.728 9.26584 39.6463C11.6861 51.4104 22.897 58.723 34.6439 56.3028C41.1007 54.9717 46.7278 51.9118 51.9832 48.0567C52.0523 48.0048 52.0869 47.9097 52.1388 47.8319C47.8688 46.5872 44.2903 44.167 40.8328 41.5479C35.6292 37.6064 30.9443 33.1117 26.7435 28.1156C23.0612 23.7332 19.5865 19.178 17.7799 13.4644ZM47.402 43.2853C48.5257 44.288 52.2166 45.792 53.6514 45.8871C54.4121 45.939 55.0258 45.7488 55.5876 45.187C56.4693 44.3053 57.3164 43.3977 58.0252 42.3777C61.4827 37.4162 62.6841 31.8237 62.4075 25.8855C62.2865 23.1886 61.6901 20.5696 60.1169 18.279C59.1402 16.8441 57.8869 15.7637 56.184 15.2883C55.4753 15.0895 54.7405 15.2018 54.2478 15.7377C53.7638 16.265 53.9972 16.9392 54.2478 17.527C54.438 17.9678 54.6714 18.3914 54.9134 18.8149C57.4979 23.3702 56.7027 29.0405 52.9167 32.6535C50.7385 34.728 48.0762 35.8776 45.1719 36.5173C42.9246 37.0186 40.6512 36.9581 38.2224 36.6469C40.1931 38.393 42.1466 39.8883 44.1433 41.3146C44.4631 41.5479 44.7657 41.6084 45.1373 41.5479C48.543 41.0293 51.4473 39.5599 53.7984 37.0359C54.3429 36.4568 54.9048 35.9122 55.6568 36.6037C56.4088 37.2866 55.9593 37.9262 55.4061 38.4967C55.3024 38.6004 55.2073 38.7128 55.1036 38.8165C52.9772 41.0466 50.4014 42.5074 47.402 43.2853ZM49.537 32.5585C48.2059 30.9594 46.9785 29.4035 45.6646 27.9341C40.3833 22.0304 34.6266 16.6713 27.7721 12.6001C25.9828 11.5369 24.1331 10.5861 22.0499 10.2058C20.3125 9.88594 19.5692 10.5861 19.8198 12.3321C19.889 12.7902 20.0532 13.2224 20.1397 13.6805C20.2175 14.0781 20.4163 14.2164 20.8312 14.2078C21.8684 14.1819 22.897 14.2856 23.891 14.5795C28.2734 15.876 31.6877 18.2444 32.7422 23.0331C33.1917 25.0557 33.0188 27.1388 33.0707 29.196C33.1398 32.2732 34.2376 33.6043 37.2456 34.3131C38.3779 34.5811 39.5276 34.6589 40.6858 34.7194C43.7976 34.8577 46.7105 34.1575 49.537 32.5585ZM15.7573 12.5309C15.0485 11.632 14.1928 10.9232 13.242 10.3441C10.5278 8.66717 7.87419 8.63259 5.76512 10.2403C2.62744 12.626 1.38275 16.654 2.63609 20.3881C3.61283 23.2924 5.51445 25.4533 8.08164 27.1648C8.92008 24.4074 9.55972 24.2778 8.7645 23.6295C6.44798 21.7365 4.91804 19.3422 5.54039 16.1526C5.84292 14.6054 6.78508 13.1187 8.36689 12.6606C9.43871 12.3494 10.6056 12.5309 11.5564 13.0755C11.7812 13.2051 14.0631 14.9857 13.9594 15.1327C14.0977 14.9339 15.7573 12.5309 15.7573 12.5309ZM30.806 29.4554C30.806 27.9081 30.832 26.4041 30.7974 24.9001C30.7455 22.4626 29.7428 20.4832 27.8758 18.9273C25.9828 17.3541 23.8305 16.4811 21.2633 16.412C23.9083 21.2524 27.0633 25.5657 30.806 29.4554Z" fill="#030202"/>
<path d="M49.3296 2.3486C50.3841 3.44635 51.2312 4.67376 51.6979 6.1432C51.9486 6.92113 51.9745 7.69907 51.8708 8.49429C51.4732 9.77357 50.678 10.6725 49.3468 11.0269C46.8315 11.2949 44.9212 10.102 43.1925 8.47701C42.8122 8.0016 42.4318 7.5262 42.0515 7.04215C41.481 5.92711 40.876 4.82071 40.876 3.5155C40.8846 1.18169 42.89 -0.408754 45.1719 0.0925826C46.14 0.308676 47.0217 0.732219 47.8947 1.19034C48.3787 1.58795 48.8541 1.96827 49.3296 2.3486ZM44.3594 2.20165C43.4432 2.17572 42.9418 2.77214 43.0369 3.77481C43.253 5.95304 46.0881 8.75361 48.2491 8.91784C49.2777 8.99563 49.8395 8.43379 49.7617 7.41383C49.5975 5.13188 46.6241 2.26216 44.3594 2.20165Z" fill="#030202"/>
<path d="M17.78 13.4645C19.5779 19.1693 23.0613 23.7246 26.7608 28.1329C30.953 33.129 35.6466 37.6237 40.8501 41.5653C44.3076 44.1843 47.8775 46.5959 52.1561 47.8493C52.1043 47.9271 52.0697 48.0221 52.0005 48.074C46.7451 51.9291 41.1181 54.989 34.6612 56.3201C22.9144 58.7404 11.6948 51.4191 9.2832 39.6636C8.27188 34.7454 9.26591 30.0086 11.0379 25.4015C12.6715 21.1055 14.9967 17.1986 17.78 13.4645ZM32.1977 40.0958C32.215 36.1543 29.5182 33.4747 25.5766 33.5093C20.6756 33.5439 15.6277 38.0991 14.9881 43.0606C14.4781 47.0368 16.4402 50.0275 20.0187 50.7017C25.7236 51.7735 32.1805 46.1551 32.1977 40.0958Z" fill="#1916A3"/>
<path d="M47.4021 43.2854C50.4014 42.5074 52.9773 41.0467 55.1036 38.8252C55.2074 38.7215 55.3024 38.6091 55.4062 38.5054C55.9594 37.9349 56.4088 37.2953 55.6568 36.6124C54.9048 35.9296 54.343 36.4655 53.7984 37.0446C51.4473 39.5686 48.543 41.0467 45.1374 41.5566C44.7657 41.6085 44.4632 41.548 44.1434 41.3233C42.138 39.897 40.1932 38.4017 38.2224 36.6556C40.6513 36.9668 42.9246 37.0273 45.172 36.526C48.0763 35.8863 50.7385 34.7367 52.9168 32.6622C56.7027 29.0491 57.4979 23.3789 54.9135 18.8236C54.6714 18.4001 54.4381 17.9765 54.2479 17.5357C53.9972 16.9479 53.7552 16.2737 54.2479 15.7464C54.7492 15.2105 55.4753 15.0982 56.1841 15.297C57.8869 15.7724 59.1316 16.8528 60.117 18.2877C61.6901 20.5783 62.2866 23.1973 62.4076 25.8942C62.6755 31.8324 61.4827 37.4163 58.0252 42.3864C57.3164 43.4064 56.4607 44.314 55.5877 45.1956C55.0345 45.7575 54.4208 45.9477 53.6515 45.8958C52.2166 45.7921 48.5257 44.2881 47.4021 43.2854Z" fill="#FC9601"/>
<path d="M49.537 32.5585C46.7105 34.1576 43.7975 34.8577 40.6771 34.7021C39.5275 34.6416 38.3693 34.5638 37.2369 34.2959C34.2289 33.5957 33.1312 32.2559 33.062 29.1788C33.0188 27.1216 33.183 25.0471 32.7336 23.0158C31.679 18.2358 28.2734 15.8674 23.8824 14.5622C22.897 14.2683 21.8597 14.1646 20.8225 14.1905C20.4076 14.1992 20.2088 14.0609 20.131 13.6633C20.0445 13.2138 19.8803 12.773 19.8112 12.3148C19.5518 10.5602 20.2952 9.86002 22.0412 10.1885C24.1244 10.5775 25.9742 11.5196 27.7634 12.5828C34.6179 16.654 40.3746 22.0131 45.6559 27.9168C46.9784 29.4035 48.2058 30.9594 49.537 32.5585Z" fill="#C51E1E"/>
<path d="M15.7574 12.5309C15.1523 13.4039 14.5559 14.2683 13.9508 15.1413C13.389 14.6227 12.879 14.0695 12.2826 13.6114C9.45609 11.4245 6.20605 12.6346 5.53184 16.144C4.91813 19.3422 6.51722 21.6414 8.75595 23.6208C9.11898 23.9407 9.20543 24.174 9.02391 24.6149C8.6868 25.4187 8.4102 26.2572 8.08174 27.1561C5.5059 25.4447 3.61293 23.2837 2.63619 20.3794C1.38285 16.6453 2.62754 12.626 5.76522 10.2317C7.87429 8.62395 10.5279 8.65852 13.242 10.3354C14.1929 10.9318 15.0486 11.632 15.7574 12.5309Z" fill="#1916A3"/>
<path d="M30.806 29.4554C27.0633 25.557 23.8997 21.2438 21.272 16.4033C23.8305 16.4725 25.9828 17.3455 27.8844 18.9186C29.7515 20.4745 30.7542 22.4539 30.806 24.8915C30.8319 26.4041 30.806 27.9081 30.806 29.4554Z" fill="#FC9601"/>
<path d="M44.3595 2.20166C46.6242 2.27081 49.6063 5.13189 49.7705 7.41384C49.8483 8.44244 49.2865 9.00428 48.2579 8.91785C46.0969 8.75361 43.2531 5.95304 43.0457 3.77482C42.942 2.77215 43.4433 2.16709 44.3595 2.20166Z" fill="#FC9601"/>
<path d="M32.1977 40.0958C32.1805 46.155 25.7236 51.7735 20.0187 50.7016C16.4402 50.0274 14.4694 47.0367 14.9881 43.0606C15.6277 38.0991 20.6756 33.5525 25.5766 33.5092C29.5268 33.4747 32.215 36.1542 32.1977 40.0958ZM18.143 47.3652C18.2554 46.8379 18.3764 46.5008 18.4023 46.1464C18.6271 43.1211 21.1511 41.1849 23.5713 41.0552C24.9284 40.9861 26.0434 40.0439 26.3805 38.7128C26.6225 37.7879 26.6485 36.8111 27.0634 35.9122C26.441 35.6183 25.8273 35.6097 25.2309 35.6788C21.5314 36.0851 18.169 39.0412 17.27 42.6284C16.8638 44.2793 16.9502 45.8266 18.143 47.3652ZM19.9928 48.4715C20.399 48.5321 20.7016 48.6185 21.0127 48.6271C25.1358 48.7741 29.4923 45.04 29.9763 40.8996C30.1319 39.5685 30.0109 38.2719 28.965 37.0791C28.8526 37.5632 28.7489 37.9175 28.6884 38.2806C28.2389 41.2454 26.5793 42.8531 23.5627 43.2767C22.1451 43.4755 21.1251 44.2275 20.7361 45.6278C20.4941 46.544 20.4768 47.5294 19.9928 48.4715Z" fill="#030202"/>
<path d="M18.1429 47.3652C16.95 45.8266 16.855 44.2794 17.2699 42.6371C18.1602 39.0413 21.5312 36.0938 25.2307 35.6875C25.8358 35.6184 26.4409 35.627 27.0632 35.9209C26.657 36.8285 26.6224 37.7966 26.3804 38.7215C26.0346 40.0526 24.9282 40.9948 23.5712 41.0639C21.1595 41.1849 18.6269 43.1211 18.4022 46.1551C18.3763 46.5008 18.2552 46.8379 18.1429 47.3652Z" fill="#C51E1E"/>
<path d="M19.9927 48.4716C20.4767 47.5294 20.4854 46.544 20.7447 45.6278C21.1337 44.2275 22.1536 43.4755 23.5712 43.2767C26.5879 42.8531 28.2474 41.2454 28.6969 38.2806C28.7488 37.9176 28.8612 37.5632 28.9735 37.0791C30.0108 38.2806 30.1404 39.5772 29.9848 40.8997C29.5008 45.04 25.1357 48.7741 21.0213 48.6272C20.7101 48.6185 20.3989 48.5407 19.9927 48.4716Z" fill="#C51E1E"/>
</svg>
